<svg fill="none" height="47" viewBox="0 0 58 47" width="58" xmlns="http://www.w3.org/2000/svg"><path d="m32.9523 17.7141c0 2.2355-1.8122 4.0476-4.0476 4.0476-2.2355 0-4.0476-1.8121-4.0476-4.0476 0-2.2354 1.8121-4.0476 4.0476-4.0476 2.2354 0 4.0476 1.8122 4.0476 4.0476z" fill="#4fc4f9"/><circle cx="28.9048" cy="17.7142" fill="#fff" r="2.42857"/><g stroke-width="2"><path d="m1 1h56v40h-56z" stroke="#4fc4f9"/><path d="m22.1726 25.6247 7.137 7.8753 6.6871-8.5594c2.2239-2.8467 3.6306-6.4461 2.4298-9.8531-1.1924-3.3832-3.8036-7.0875-9.5216-7.0875-5.1058 0-7.9249 2.9534-9.4745 5.9946-1.9884 3.9024-.1989 8.3847 2.7422 11.6301z" stroke="#00ffa2"/><path d="m10 46h38" stroke="#4fc4f9"/></g></svg>