<svg width="32" height="32" viewBox="0 0 32 32" fill="none" xmlns="http://www.w3.org/2000/svg">
<path d="M24.6166 11.875C24.2407 12.2484 23.7324 12.458 23.2025 12.458C22.6727 12.458 22.1643 12.2484 21.7884 11.875L20.1278 10.2144C19.754 9.83854 19.5442 9.33004 19.5442 8.79998C19.5442 8.26992 19.754 7.76142 20.1278 7.3856L23.8866 3.62498C23.894 3.61783 23.8996 3.60894 23.9027 3.59912C23.9059 3.5893 23.9066 3.57885 23.9047 3.5687C23.9029 3.55854 23.8985 3.54901 23.8921 3.54095C23.8856 3.53288 23.8773 3.52654 23.8678 3.52248C21.4416 2.48248 18.2959 3.01248 16.2984 4.9956C14.3872 6.89248 14.2784 9.74561 14.9784 12.2356C15.0779 12.5895 15.0777 12.9641 14.9777 13.3179C14.8778 13.6717 14.6821 13.991 14.4122 14.2406L3.99964 23.75C3.69243 24.0224 3.44418 24.3547 3.27016 24.7266C3.09613 25.0984 3 25.502 2.98768 25.9123C2.97536 26.3227 3.04711 26.7313 3.19852 27.1129C3.34993 27.4946 3.5778 27.8412 3.86811 28.1315C4.15843 28.4218 4.50506 28.6497 4.8867 28.8011C5.26833 28.9525 5.6769 29.0243 6.08728 29.0119C6.49767 28.9996 6.9012 28.9035 7.27306 28.7295C7.64493 28.5554 7.97726 28.3072 8.24964 28L17.8659 17.5625C18.1124 17.2971 18.4264 17.1038 18.7743 17.0033C19.1222 16.9028 19.4909 16.8988 19.8409 16.9919C22.3122 17.6537 25.1247 17.5294 27.0109 15.6675C29.0416 13.6675 29.4797 10.1325 28.4953 8.10935C28.4909 8.10051 28.4844 8.09285 28.4764 8.087C28.4685 8.08114 28.4592 8.07726 28.4495 8.07567C28.4397 8.07409 28.4297 8.07484 28.4203 8.07787C28.4109 8.0809 28.4023 8.08612 28.3953 8.0931L24.6166 11.875Z" stroke="black" stroke-width="2" stroke-miterlimit="10" stroke-linecap="round"/>
<path d="M6 27C6.55228 27 7 26.5523 7 26C7 25.4477 6.55228 25 6 25C5.44772 25 5 25.4477 5 26C5 26.5523 5.44772 27 6 27Z" fill="black"/>
</svg>
