<svg fill="none" height="138" viewBox="0 0 160 138" width="160" xmlns="http://www.w3.org/2000/svg"><path d="m59.1309 86.743 1.2987-3.0423c1.4233 1.0497 3.2737 1.6012 5.124 1.6012 1.3521 0 2.2239-.5337 2.2239-1.3344-.0356-2.2239-8.1841-.4981-8.2552-6.1024-.0356-2.8466 2.5086-5.0528 6.0846-5.0528 2.135 0 4.27.5338 5.7822 1.7258l-1.2098 3.0957c-1.3877-.8896-3.1135-1.5123-4.7503-1.5123-1.1208 0-1.8503.5338-1.8503 1.2098.0356 2.2062 8.2552.9964 8.3442 6.3516 0 2.9178-2.473 4.946-5.9957 4.946-2.5976.0356-4.9816-.5871-6.7963-1.8859zm51.6841-4.1276c-.676 1.192-1.922 1.9215-3.274 1.9215-2.081 0-3.771-1.6902-3.771-3.7718s1.69-3.7718 3.771-3.7718c1.352 0 2.616.7294 3.274 1.9215l3.612-2.0105c-1.353-2.4196-3.932-4.0564-6.886-4.0564-4.359 0-7.8991 3.5405-7.8991 7.9172s3.5401 7.9172 7.8991 7.9172c2.954 0 5.533-1.6368 6.886-4.0565zm-36.5436 5.7288h4.519v-22.0969h-4.519zm42.4326-22.0969v22.0969h4.519v-6.6184l5.355 6.6184h5.765l-6.797-7.8638 6.298-7.3478h-5.515l-5.106 6.1024v-13.0055h-4.519zm-24.0185 6.9031v1.7969c-.7473-1.2454-2.562-2.0994-4.4835-2.0994-3.9497 0-7.081 3.5049-7.081 7.8994s3.1135 7.935 7.081 7.935c1.9215 0 3.7362-.8718 4.4835-2.0994v1.7969h4.519v-15.2117h-4.519zm0 9.4828c-.6405 1.0853-2.0105 1.8859-3.5227 1.8859-2.0816 0-3.7718-1.6902-3.7718-3.7718s1.6902-3.7718 3.7718-3.7718c1.5122 0 2.8822.8362 3.5227 1.9571z" fill="#000"/><path d="m35.2901 65.7671c-1.4589 0-2.6509 1.192-2.6509 2.6509s1.192 2.6509 2.6509 2.6509h2.6509v-2.6509c0-1.4589-1.1742-2.6509-2.6509-2.6509zm0 7.0632h-7.0454c-1.4589 0-2.6509 1.192-2.6509 2.6509s1.192 2.6509 2.6509 2.6509h7.0632c1.4589 0 2.6509-1.192 2.6509-2.6509-.0178-1.4589-1.192-2.6509-2.6687-2.6509z" fill="#36c5f0"/><path d="m52.0677 75.4809c0-1.4589-1.1921-2.6509-2.651-2.6509-1.4588 0-2.6509 1.192-2.6509 2.6509v2.651h2.6509c1.4589.0177 2.651-1.1743 2.651-2.651zm-7.0632 0v-7.081c0-1.4589-1.192-2.6509-2.6509-2.6509s-2.651 1.192-2.651 2.6509v7.081c0 1.4589 1.1921 2.651 2.651 2.651 1.4766.0177 2.6509-1.1743 2.6509-2.651z" fill="#2eb67d"/><path d="m42.3536 92.294c1.4589 0 2.6509-1.1921 2.6509-2.651s-1.192-2.6509-2.6509-2.6509h-2.651v2.6509c0 1.4589 1.1921 2.651 2.651 2.651zm0-7.081h7.0631c1.4589 0 2.651-1.1921 2.651-2.6509 0-1.4589-1.1921-2.651-2.651-2.651h-7.0631c-1.4589 0-2.651 1.1921-2.651 2.651 0 1.4588 1.1921 2.6509 2.651 2.6509z" fill="#ecb22e"/><path d="m25.5938 82.5621c0 1.4588 1.192 2.6509 2.6509 2.6509s2.6509-1.1921 2.6509-2.6509v-2.651h-2.6509c-1.4767 0-2.6509 1.1921-2.6509 2.651zm7.0631 0v7.0809c0 1.4589 1.1921 2.651 2.651 2.651s2.6509-1.1921 2.6509-2.651v-7.0809c0-1.4589-1.192-2.651-2.6509-2.651-1.4767 0-2.651 1.1921-2.651 2.651z" fill="#e01e5a"/></svg>