<svg fill="none" height="130" viewBox="0 0 160 130" width="160" xmlns="http://www.w3.org/2000/svg"><path d="m69.5597 104c22.2627 0 34.4303-18.4729 34.4303-34.4876 0-.5299-.015-1.0451-.03-1.5602 2.366-1.7075 4.424-3.8418 6.04-6.2705-2.175.9715-4.497 1.6191-6.951 1.9135 2.498-1.5014 4.423-3.8712 5.32-6.712-2.337 1.3836-4.923 2.3992-7.686 2.9438-2.2038-2.3551-5.3485-3.827-8.8312-3.827-6.6862 0-12.1086 5.4315-12.1086 12.1288 0 .9568.1029 1.8694.3086 2.7672-10.0513-.5446-18.9711-5.3725-24.9519-12.7028-1.0434 1.7958-1.6459 3.8712-1.6459 6.0938 0 4.2098 2.1308 7.9191 5.3931 10.0975-1.9838-.0588-3.8501-.6035-5.4812-1.5161v.162c0 5.873 4.1733 10.7746 9.7133 11.8785-1.0139.2797-2.0867.4269-3.1888.4269-.7788 0-1.543-.0736-2.2777-.2208 1.543 4.8132 6.0102 8.3165 11.3004 8.4195-4.144 3.253-9.3607 5.1959-15.0329 5.1959-.9699 0-1.9397-.0588-2.8802-.1619 5.3636 3.4145 11.7118 5.4315 18.5597 5.4315z" fill="#1da1f2"/></svg>