<svg fill="none" height="130" viewBox="0 0 160 130" width="160" xmlns="http://www.w3.org/2000/svg" xmlns:xlink="http://www.w3.org/1999/xlink"><clipPath id="a"><path d="m46 50h68v59.1213h-68z"/></clipPath><g clip-path="url(#a)"><g fill="#2d8cff"><path d="m46.0278 93.8555h12.2966s2.41.0617 2.1013 2.9666l-9.0842 9.1459h6.8594s3.3371-.37 3.0284 3.087h-11.8027s-2.5334.123-2.5952-3.087l9.1448-9.0831h-6.8583s-3.4606 0-3.0901-3.0294z"/><path d="m98.8774 69.0865c.0002-3.7751-1.1191-7.4654-3.2162-10.6044-2.0972-3.139-5.0781-5.5855-8.5657-7.0303-3.4877-1.4449-7.3255-1.823-11.028-1.0866-3.7026.7363-7.1036 2.5541-9.7731 5.2234-2.6694 2.6693-4.4874 6.0702-5.224 9.7728-.7365 3.7025-.3586 7.5403 1.086 11.028s3.891 6.4688 7.0299 8.5661c3.1388 2.0973 6.8291 3.2168 10.6042 3.2168 5.062 0 9.9166-2.0108 13.4961-5.59 3.5794-3.5793 5.5905-8.4338 5.5908-13.4958z"/><path d="m68.1036 106.097c-.9167 0-1.8127-.272-2.5749-.781s-1.3562-1.233-1.707-2.08-.4426-1.779-.2637-2.678c.1788-.8987.6202-1.7246 1.2684-2.3727.6482-.6482 1.474-1.0896 2.373-1.2684.899-.1789 1.8309-.0871 2.6778.2637s1.5707.9448 2.08 1.707c.5092.7622.7811 1.6584.7811 2.5744 0 1.23-.4883 2.409-1.3575 3.278s-2.048 1.357-3.2772 1.357zm7.6641-4.635c0-1.5153-.4495-2.9971-1.2916-4.2575-.8422-1.2603-2.0391-2.2427-3.4396-2.8228-1.4004-.58-2.9414-.7318-4.4281-.4361s-2.8523 1.0257-3.9242 2.0975c-1.0718 1.0719-1.8018 2.4375-2.0975 3.9242s-.1439 3.0277.4362 4.4277c.58 1.401 1.5624 2.598 2.8227 3.44 1.2604.842 2.7422 1.292 4.258 1.292 1.0067-.001 2.0036-.199 2.9336-.585.93-.385 1.7749-.95 2.4866-1.662.7116-.712 1.2759-1.558 1.6608-2.488.3848-.93.5826-1.927.5821-2.934z"/><path d="m84.1705 106.097c-.9166 0-1.8126-.272-2.5746-.781-.762-.51-1.3559-1.234-1.7065-2.081-.3507-.847-.4423-1.778-.2633-2.677.1789-.8993.6204-1.725 1.2686-2.3731s1.4741-1.0894 2.3731-1.2681c.899-.1788 1.8308-.0869 2.6776.2639s1.5706.9449 2.0798 1.707.781 1.6583.781 2.5743c0 .609-.1199 1.212-.3529 1.774-.233.563-.5744 1.074-1.0049 1.504s-.9416.772-1.504 1.005-1.1652.352-1.7739.352zm7.6641-4.635c0-1.5153-.4495-2.9971-1.2916-4.2575-.8422-1.2603-2.0391-2.2427-3.4396-2.8228-1.4004-.58-2.9414-.7318-4.4281-.4361s-2.8523 1.0257-3.9242 2.0975c-1.0718 1.0719-1.8018 2.4375-2.0975 3.9242s-.1439 3.0277.4361 4.4277c.5801 1.401 1.5625 2.598 2.8228 3.44 1.2604.842 2.7422 1.292 4.258 1.292 1.0067-.001 2.0036-.199 2.9336-.585.93-.385 1.7749-.95 2.4866-1.662.7116-.712 1.2759-1.558 1.6608-2.488.3848-.93.5826-1.927.582-2.934z"/><path d="m92.5576 93.7948v15.2632s2.9049.551 3.0284-2.535v-6.549s.1235-3.087 3.1508-3.1508c0 0 2.9042.1234 3.0282 3.0273v6.7355s.185 2.72 3.151 2.472v-9.1458s.062-3.2743 3.152-3.0869c0 0 2.595.1852 2.78 2.5951v6.3646s-.247 3.647 3.152 3.275v-9.3947s-.185-5.2532-5.623-5.8705c0 0-3.461-.1235-5.098 2.1012 0 0-3.6193-4.1046-7.941-.9889 0 0-.9889-.9889-2.7804-1.1123z"/></g><path d="m67.4468 62.1348h14.0583s3.4287.3427 3.5426 3.0869v10.6287h-13.6007s-3.8853.4566-4.0002-3.5436z" fill="#fff"/><path d="m91.905 62.1348v13.7305l-6.0578-4.0162v-5.6002z" fill="#fff"/></g></svg>