<svg width="46" height="45" viewBox="0 0 46 45" fill="none" xmlns="http://www.w3.org/2000/svg">
<rect x="1" y="1" width="44" height="43" stroke="#4FC4F9" stroke-width="2"/>
<rect x="7" y="4" width="2" height="2" fill="#4FC4F9"/>
<rect x="4" y="4" width="2" height="2" fill="#4FC4F9"/>
<rect x="10" y="4" width="2" height="2" fill="#4FC4F9"/>
<rect x="18" y="4" width="24" height="2" fill="#4FC4F9"/>
<rect x="2" y="8" width="42" height="2" fill="#4FC4F9"/>
<path d="M33.5399 30.4516L28.5626 25.4743L33.5391 20.4978C33.6851 20.352 33.801 20.1788 33.88 19.9881C33.9591 19.7974 33.9999 19.5931 33.9999 19.3867C34 19.1802 33.9594 18.9759 33.8805 18.7851C33.8015 18.5944 33.6858 18.4211 33.5399 18.2752L33.5391 18.2736L30.7264 15.4609C30.5805 15.3148 30.4073 15.199 30.2166 15.1199C30.026 15.0408 29.8216 15.0001 29.6152 15C29.4088 14.9999 29.2044 15.0405 29.0137 15.1195C28.8229 15.1984 28.6496 15.3141 28.5037 15.4601L28.5029 15.4609L23.5264 20.4373L18.5491 15.4601C18.2541 15.1663 17.8546 15.0013 17.4382 15.0013C17.0218 15.0013 16.6223 15.1663 16.3272 15.4601L12.4601 19.3264C12.1655 19.6212 12 20.0209 12 20.4377C12 20.8545 12.1655 21.2543 12.4601 21.5491L17.4366 26.5256L12.0005 31.9632V36.9994H17.0367L22.4736 31.5625L27.4509 36.5414C27.7464 36.8349 28.1461 36.9996 28.5626 36.9996C28.9791 36.9996 29.3788 36.8349 29.6743 36.5414L33.5399 32.6743C33.8345 32.3795 34 31.9797 34 31.5629C34 31.1461 33.8345 30.7464 33.5399 30.4516ZM29.6099 16.5687L32.4305 19.3892L27.4548 24.3657L24.6342 21.5451L29.6099 16.5687ZM16.7146 35.4281H13.5719V32.6067L18.5452 27.6341L21.4334 30.5239L16.7146 35.4281ZM28.5626 35.4312L13.5719 20.4373L17.439 16.5718L20.4151 19.5472L18.6458 21.3173L19.7575 22.4282L21.5261 20.6589L24.7709 23.9037L23 25.6715L24.1125 26.7825L25.8819 25.0131L29.1267 28.258L27.3574 30.0265L28.4683 31.1383L30.2377 29.3697L32.4297 31.5625L28.5626 35.4312Z" fill="#1493CC"/>
</svg>
