<svg width="60" height="60" viewBox="0 0 60 60" fill="none" xmlns="http://www.w3.org/2000/svg">
<rect width="60" height="60" fill="white"/>
<path d="M4 4H16V56" stroke="#4FC4F9" stroke-width="2" stroke-linecap="square"/>
<rect x="6" y="17" width="10" height="26" stroke="#00FFA2" stroke-width="2"/>
<rect x="20" y="21" width="7" height="18" stroke="#4FC4F9" stroke-width="2"/>
<rect x="16" y="11" width="40" height="38" stroke="#4FC4F9" stroke-width="2"/>
<rect x="7.5" y="29.5" width="7" height="1" fill="#191919" stroke="#00FFA2"/>
<path d="M30.0007 30.2556C30.0043 33.3352 31.2533 36.1277 33.2692 38.1583C33.2844 38.1747 33.2988 38.19 33.3151 38.2053C35.3429 40.2244 38.1343 41.4759 41.2131 41.4839C41.2225 41.4841 41.2313 41.4893 41.2407 41.4893C41.2498 41.4893 41.2583 41.4843 41.2673 41.4841C44.3525 41.4772 47.1497 40.2219 49.1793 38.1966C49.1874 38.1887 49.1948 38.1808 49.2026 38.1727C51.2296 36.138 52.4849 33.3341 52.4849 30.2422C52.4849 27.1537 51.2319 24.3531 49.209 22.3192C49.1957 22.3051 49.183 22.2921 49.1689 22.2788C47.1346 20.254 44.3324 19 41.2422 19C38.1569 19 35.359 20.2506 33.3256 22.27C33.3032 22.2905 33.2833 22.3111 33.2628 22.3336C31.248 24.3662 30.0001 27.1605 30 30.242C30 30.2466 30.0007 30.251 30.0007 30.2556ZM36.3327 38.0593C38.1238 37.3962 39.5795 35.9948 40.2824 34.1899C40.5917 34.2653 40.91 34.3164 41.2422 34.3164C41.2969 34.3164 41.3478 34.3024 41.402 34.3002C42.2533 35.9745 42.0205 38.0071 40.8011 39.463C39.1641 39.3852 37.6397 38.8834 36.3327 38.0593ZM40.82 28.2117C40.9564 28.1833 41.0975 28.168 41.2422 28.168C42.3857 28.168 43.3164 29.0986 43.3164 30.2422C43.3164 31.3857 42.3857 32.3164 41.2422 32.3164C40.0986 32.3164 39.1685 31.3857 39.1685 30.2422C39.1685 29.2532 39.8653 28.4264 40.793 28.2201C40.8021 28.2175 40.811 28.2145 40.82 28.2117ZM43.3528 33.7096C43.6782 33.5107 43.9717 33.2711 44.2287 32.9921C46.0135 33.5823 47.2841 35.1847 47.4492 37.0709C46.2941 38.1219 44.8767 38.8851 43.3034 39.2454C44.1025 37.507 44.138 35.4839 43.3528 33.7096ZM45.1914 31.1973C45.2661 30.8895 45.3164 30.5726 45.3164 30.2422C45.3164 30.1877 45.3025 30.1371 45.3004 30.0833C46.9786 29.2368 49.0101 29.4716 50.4621 30.6916C50.3831 32.3225 49.8832 33.8414 49.0634 35.1447C48.3997 33.3558 46.9974 31.9014 45.1914 31.1973ZM44.711 28.1341C44.5128 27.8091 44.274 27.5158 43.9958 27.2588C44.5865 25.4748 46.188 24.2045 48.0729 24.0383C49.1245 25.1949 49.8878 26.614 50.247 28.189C48.5107 27.3898 46.4873 27.3533 44.711 28.1341ZM42.2025 26.2946C41.8931 26.2191 41.5745 26.168 41.2422 26.168C41.1826 26.168 41.1271 26.183 41.0682 26.1855C40.2286 24.5046 40.468 22.4717 41.6874 21.0225C43.3216 21.101 44.8436 21.6021 46.1489 22.4242C44.3607 23.0878 42.907 24.4895 42.2025 26.2946ZM39.1222 26.78C38.8035 26.976 38.5156 27.2113 38.2626 27.4844C36.4749 26.8977 35.2005 25.2988 35.0328 23.4167C36.1888 22.364 37.6077 21.5997 39.1831 21.2394C38.3829 22.976 38.3434 25.0013 39.1222 26.78ZM37.2961 29.2786C37.2201 29.5891 37.1685 29.9086 37.1685 30.2422C37.1685 30.2986 37.1829 30.3512 37.1851 30.4071C35.503 31.2512 33.4706 31.0184 32.0222 29.8047C32.0992 28.1696 32.5995 26.6467 33.4213 25.3404C34.0869 27.1248 35.4895 28.5761 37.2961 29.2786ZM35.0635 32.9229C35.9839 32.9229 36.9054 32.7257 37.7714 32.3458C37.9699 32.6722 38.2092 32.967 38.4883 33.225C37.9007 35.0078 36.2975 36.278 34.4092 36.4441C33.3599 35.2888 32.5981 33.8719 32.2388 32.2992C33.1291 32.7076 34.0928 32.9229 35.0635 32.9229Z" fill="#00FFA2"/>
</svg>
