<svg fill="none" height="60" viewBox="0 0 60 60" width="60" xmlns="http://www.w3.org/2000/svg"><path d="m0 0h60v60h-60z" fill="#fff"/><g stroke="#000"><path d="m1.5 13.5h57v29h-57z" stroke-dasharray="2 2"/><path d="m1.5 11c0-.8284.67157-1.5 1.5-1.5h54c.8284 0 1.5.6716 1.5 1.5v34c0 .8284-.6716 1.5-1.5 1.5h-54c-.82843 0-1.5-.6716-1.5-1.5z"/><path d="m15 52h30"/></g><path d="m31.5455 20v8h-6.5455z" fill="#4fc4f9"/><path d="m28.6362 36v-8h6.5454z" fill="#4fc4f9"/><path clip-rule="evenodd" d="m41.4225 31.6882c.375-1.162.5775-2.4015.5775-3.6883 0-1.3671-.2286-2.6808-.6497-3.905l.9588-.2876c.4479 1.3154.6909 2.7256.6909 4.1926 0 1.4078-.2238 2.7633-.6377 4.0329zm-22.845 0c-.375-1.162-.5775-2.4015-.5775-3.6883 0-1.3671.2286-2.6808.6497-3.905l-.9588-.2876c-.4479 1.3154-.6909 2.7256-.6909 4.1926 0 1.4078.2238 2.7633.6377 4.0329zm2.8203-1.0341c-.2586-.8389-.3978-1.7303-.3978-2.6541 0-1.0676.1859-2.0918.527-3.0419l.9597.2879c-.3149.8586-.4867 1.7862-.4867 2.754 0 .8029.1183 1.5781.3383 2.3093zm17.2044 0c.2586-.8389.3978-1.7303.3978-2.6541 0-1.0676-.1859-2.0918-.527-3.0419l-.9597.2879c.3149.8586.4867 1.7862.4867 2.754 0 .8029-.1183 1.5781-.3383 2.3093z" fill="#000" fill-rule="evenodd"/></svg>