<svg width="60" height="60" viewBox="0 0 60 60" fill="none" xmlns="http://www.w3.org/2000/svg">
<rect x="8" y="9" width="44" height="43" stroke="#4FC4F9" stroke-width="2"/>
<rect x="14" y="12" width="2" height="2" fill="#4FC4F9"/>
<rect x="11" y="12" width="2" height="2" fill="#4FC4F9"/>
<rect x="17" y="12" width="2" height="2" fill="#4FC4F9"/>
<rect x="25" y="12" width="24" height="2" fill="#4FC4F9"/>
<rect x="9" y="16" width="42" height="2" fill="#4FC4F9"/>
<path d="M40.5399 38.4516L35.5626 33.4743L40.5391 28.4978C40.6851 28.352 40.801 28.1788 40.88 27.9881C40.9591 27.7974 40.9999 27.5931 40.9999 27.3867C41 27.1802 40.9594 26.9759 40.8805 26.7851C40.8015 26.5944 40.6858 26.4211 40.5399 26.2752L40.5391 26.2736L37.7264 23.4609C37.5805 23.3148 37.4073 23.199 37.2166 23.1199C37.026 23.0408 36.8216 23.0001 36.6152 23C36.4088 22.9999 36.2044 23.0405 36.0137 23.1195C35.8229 23.1984 35.6496 23.3141 35.5037 23.4601L35.5029 23.4609L30.5264 28.4373L25.5491 23.4601C25.2541 23.1663 24.8546 23.0013 24.4382 23.0013C24.0218 23.0013 23.6223 23.1663 23.3272 23.4601L19.4601 27.3264C19.1655 27.6212 19 28.0209 19 28.4377C19 28.8545 19.1655 29.2543 19.4601 29.5491L24.4366 34.5256L19.0005 39.9632V44.9994H24.0367L29.4736 39.5625L34.4509 44.5414C34.7464 44.8349 35.1461 44.9996 35.5626 44.9996C35.9791 44.9996 36.3788 44.8349 36.6743 44.5414L40.5399 40.6743C40.8345 40.3795 41 39.9797 41 39.5629C41 39.1461 40.8345 38.7464 40.5399 38.4516ZM36.6099 24.5687L39.4305 27.3892L34.4548 32.3657L31.6342 29.5451L36.6099 24.5687ZM23.7146 43.4281H20.5719V40.6067L25.5452 35.6341L28.4334 38.5239L23.7146 43.4281ZM35.5626 43.4312L20.5719 28.4373L24.439 24.5718L27.4151 27.5472L25.6458 29.3173L26.7575 30.4282L28.5261 28.6589L31.7709 31.9037L30 33.6715L31.1125 34.7825L32.8819 33.0131L36.1267 36.258L34.3574 38.0265L35.4683 39.1383L37.2377 37.3697L39.4297 39.5625L35.5626 43.4312Z" fill="#00FFA2"/>
</svg>
