<svg width="60" height="60" viewBox="0 0 60 60" fill="none" xmlns="http://www.w3.org/2000/svg">
<rect width="60" height="60" fill="white"/>
<rect x="14" y="14" width="32" height="32" stroke="#4FC4F9" stroke-width="2"/>
<rect x="21" y="21" width="18" height="18" stroke="#4FC4F9" stroke-width="2"/>
<rect x="28" y="10" width="4" height="3" fill="#4FC4F9"/>
<rect width="4" height="3" transform="matrix(1 0 0 -1 28 50)" fill="#4FC4F9"/>
<rect x="50" y="28" width="4" height="3" transform="rotate(90 50 28)" fill="#4FC4F9"/>
<rect width="4" height="3" transform="matrix(4.37114e-08 1 1 -4.37114e-08 10 28)" fill="#4FC4F9"/>
<path fill-rule="evenodd" clip-rule="evenodd" d="M18 8.82929C19.1652 8.41746 20 7.30622 20 6C20 4.34315 18.6569 3 17 3C15.3431 3 14 4.34315 14 6C14 7.30622 14.8348 8.41746 16 8.82929V13H18V8.82929Z" fill="#00FFA2"/>
<path fill-rule="evenodd" clip-rule="evenodd" d="M16 51.1707C14.8348 51.5825 14 52.6938 14 54C14 55.6569 15.3431 57 17 57C18.6569 57 20 55.6569 20 54C20 52.6938 19.1652 51.5825 18 51.1707V47H16V51.1707Z" fill="#00FFA2"/>
<path fill-rule="evenodd" clip-rule="evenodd" d="M52.1707 17C52.5825 18.1652 53.6938 19 55 19C56.6569 19 58 17.6569 58 16C58 14.3431 56.6569 13 55 13C53.6938 13 52.5825 13.8348 52.1707 15L47 15V17L52.1707 17Z" fill="#00FFA2"/>
<path fill-rule="evenodd" clip-rule="evenodd" d="M9.82929 17C9.41746 18.1652 8.30622 19 7 19C5.34315 19 4 17.6569 4 16C4 14.3431 5.34315 13 7 13C8.30622 13 9.41746 13.8348 9.82929 15L13 15V17H9.82929Z" fill="#00FFA2"/>
<path fill-rule="evenodd" clip-rule="evenodd" d="M46 8.82929C47.1652 8.41746 48 7.30622 48 6C48 4.34315 46.6569 3 45 3C43.3431 3 42 4.34315 42 6C42 7.30622 42.8348 8.41746 44 8.82929V13H46V8.82929Z" fill="#00FFA2"/>
<path fill-rule="evenodd" clip-rule="evenodd" d="M44 51.1707C42.8348 51.5825 42 52.6938 42 54C42 55.6569 43.3431 57 45 57C46.6569 57 48 55.6569 48 54C48 52.6938 47.1652 51.5825 46 51.1707V47H44V51.1707Z" fill="#00FFA2"/>
<path fill-rule="evenodd" clip-rule="evenodd" d="M52.1707 45C52.5825 46.1652 53.6938 47 55 47C56.6569 47 58 45.6569 58 44C58 42.3431 56.6569 41 55 41C53.6938 41 52.5825 41.8348 52.1707 43L47 43V45L52.1707 45Z" fill="#00FFA2"/>
<path fill-rule="evenodd" clip-rule="evenodd" d="M9.82929 45C9.41746 46.1652 8.30622 47 7 47C5.34315 47 4 45.6569 4 44C4 42.3431 5.34315 41 7 41C8.30622 41 9.41746 41.8348 9.82929 43L13 43V45H9.82929Z" fill="#00FFA2"/>
</svg>
