<svg height="500" width="840" xmlns="http://www.w3.org/2000/svg" xmlns:xlink="http://www.w3.org/1999/xlink"><defs><path id="a" d="m456 20c-171 0-251-112-250-288v-671h-197v-143h197v-262h185v262h202v143h-202v671c-9 125 92 149 207 118v150c-49 13-96 20-142 20" fill="#202124"/><path id="b" d="m341 0h-185v-1082h185zm-91-1264c-68 0-108-42-109-105 0-62 41-107 109-107s110 44 110 107-42 105-110 105" fill="#202124"/><g id="c"><path d="m632-1102c291 0 422 251 422 573 0 297-141 548-419 549-131 0-235-42-310-125v521h-185v-1498h169l9 120c75-93 180-140 314-140zm-53 971c207 0 290-180 290-419 0-218-92-395-292-395-112 0-196 50-252 149v517c55 99 140 148 254 148" fill="#202124" transform="scale(.01041667)"/><path d="m561-1102c238-4 403 126 403 351v498c0 99 13 178 38 237v16h-194c-11-21-19-59-26-114-86 89-189 134-308 134-199 0-368-130-365-320 4-251 214-359 490-356h180v-85c-1-135-86-212-229-212-115 0-232 67-233 171h-186c20-205 206-316 430-320zm-267 776c0 117 90 185 207 185 122 0 239-75 278-162v-222h-145c-227 0-340 66-340 199" fill="#202124" transform="matrix(.01041667 0 0 .01041667 11.96875 0)"/><path d="m663-916c-163-27-288 18-338 148v768h-185v-1082h180l3 125c61-97 147-145 258-145 36 0 63 5 82 14z" fill="#202124" transform="matrix(.01041667 0 0 .01041667 23.572917 0)"/><use transform="matrix(.01041667 0 0 .01041667 31.3125 0)" xlink:href="#a"/><use transform="matrix(.01041667 0 0 .01041667 38.28125 0)" xlink:href="#b"/><use transform="matrix(.01041667 0 0 .01041667 43.458333 0)" xlink:href="#a"/><use transform="matrix(.01041667 0 0 .01041667 50.427083 0)" xlink:href="#b"/><path d="m584 20c-306 6-503-247-493-571 10-320 175-545 491-551 308-5 503 247 494 573-9 322-175 543-492 549zm-2-970c-208 0-305 185-305 421 0 216 106 398 307 398 211 0 307-186 307-420 0-214-109-399-309-399" fill="#202124" transform="matrix(.01041667 0 0 .01041667 55.604167 0)"/><path d="m589-945c-131 0-219 81-264 174v771h-185v-1082h175l6 136c83-104 191-156 324-156 229 0 346 129 346 387v715h-185v-716c-2-153-65-229-217-229" fill="#202124" transform="matrix(.01041667 0 0 .01041667 67.770833 0)"/></g><path id="d" d="m355-556c-2 203 30 338 206 343 102 3 181-63 182-161h271c-13 246-193 391-448 394-324 4-500-232-500-574 0-320 184-548 498-548 262 0 451 167 450 423h-271c-1-108-75-193-184-189-162 6-202 123-204 312" fill="#fff"/><path id="e" d="m579 20c-322 0-521-234-513-571 8-331 182-551 511-551 324 0 514 231 514 572 0 319-198 550-512 550zm-2-888c-169 0-222 141-222 338 0 181 61 317 224 317 170 0 223-137 223-338 0-178-64-317-225-317" fill="#fff"/><path id="f" d="m416 0h-290v-1536h290z" fill="#fff"/><path id="g" d="m1031-175c-79 115-234 195-422 195-322 0-549-226-537-563 12-330 180-559 505-559 309 0 482 214 477 537v118h-689c15 134 115 234 263 234 111 0 198-40 261-121zm-261-469c5-139-62-226-194-224-130 1-191 97-208 224z" fill="#fff"/><path id="h" d="m457-330c2 83 25 111 111 112 32 0 60-2 85-7v219c-57 17-115 26-175 26-203 0-310-102-310-307v-583h-158v-212h158v-266h289v266h185v212h-185z" fill="#fff"/><path id="i" d="m750-692c-1-124-48-174-173-175-81 0-142 35-183 104v763h-289v-1082h272l9 125c77-97 181-145 311-145 244 0 342 151 342 403v699h-289z" fill="#fff"/><path id="j" d="m599-131c141 0 220-65 285-146l113 88c-91 139-227 209-408 209-308 1-496-234-496-565 0-223 93-397 233-485 74-48 154-72 240-72 300 2 449 218 445 537v77h-733c0 197 129 357 321 357zm227-509c-3-180-88-310-260-310-170 0-264 140-282 310z" fill="#fff"/><g id="k"><path d="m538-131c121 0 232-49 232-156 0-50-20-88-56-117-73-60-334-92-420-143-92-55-162-110-162-238 0-190 192-317 400-317 223 0 414 129 413 338h-186c0-108-110-186-227-186-119 0-215 53-215 159 0 45 18 78 53 101 76 52 331 90 416 139 98 57 169 115 169 251 0 208-195 320-417 320-176 0-314-68-386-174-38-55-57-115-57-179h185c6 129 116 202 258 202" fill="#fff" transform="scale(.01041667)"/><use transform="matrix(.01041667 0 0 .01041667 11 0)" xlink:href="#j"/><path d="m521 20c-281 0-425-259-425-570 0-303 147-552 427-552 132 0 235 47 309 140l9-120h169v1056c4 277-183 454-459 452-165-1-334-81-400-187l96-111c79 98 176 147 291 147 180 1 288-109 286-290v-93c-74 85-175 128-303 128zm48-965c-209 0-287 178-287 416 0 217 86 392 285 392 117 0 202-53 257-159v-494c-57-103-142-155-255-155" fill="#fff" transform="matrix(.01041667 0 0 .01041667 22.302083 0)"/><path d="m1240-945c-141 0-250 95-250 227v718h-186v-709c0-157-77-236-231-236-121 0-204 52-249 155v790h-185v-1082h175l5 120c79-93 186-140 321-140 151 0 254 58 309 174 69-98 181-174 345-174 237 0 362 126 362 377v725h-185v-714c-2-159-67-231-231-231" fill="#fff" transform="matrix(.01041667 0 0 .01041667 34.270833 0)"/><use transform="matrix(.01041667 0 0 .01041667 52.96875 0)" xlink:href="#j"/><path d="m589-945c-131 0-219 81-264 174v771h-185v-1082h175l6 136c83-104 191-156 324-156 229 0 346 129 346 387v715h-185v-716c-2-153-65-229-217-229" fill="#fff" transform="matrix(.01041667 0 0 .01041667 64.270833 0)"/><path d="m456 20c-171 0-251-112-250-288v-671h-197v-143h197v-262h185v262h202v143h-202v671c-9 125 92 149 207 118v150c-49 13-96 20-142 20" fill="#fff" transform="matrix(.01041667 0 0 .01041667 76.041667 0)"/></g><path id="l" d="m457-330c2 83 25 111 111 112 32 0 60-2 85-7v219c-57 17-115 26-175 26-203 0-310-102-310-307v-583h-158v-212h158v-266h289v266h185v212h-185z" fill="#333"/><path id="m" d="m416 0h-290v-1082h290zm-145-1212c-92 0-162-61-162-150s68-149 162-149c93 0 162 60 162 149s-70 150-162 150" fill="#333"/><path id="n" d="m114-163c-78-16-53 91-57 163h-32l-1-190h30c1 12-1 29 2 39 6-27 23-49 58-41z" fill="#333"/><path id="o" d="m-5 72v-23h209v23z" fill="#333"/><path id="p" d="m101-234c-31-9-42 10-38 44h38v23h-38v167h-31v-167h-27v-23h27c-7-52 17-82 69-68z" fill="#333"/><path id="q" d="m24-231v-30h32v30zm0 231v-190h32v190z" fill="#333"/><path id="r" d="m24 0v-261h32v261z" fill="#333"/><path id="s" d="m100-194c63 0 86 42 84 106h-135c0 40 14 67 53 68 26 1 43-12 49-29l28 8c-11 28-37 45-77 45-58 0-88-37-87-100 1-61 26-98 85-98zm52 81c6-60-76-77-97-28-3 7-6 17-6 28z" fill="#333"/><path id="t" d="m85-194c31 0 48 13 60 33l-1-100h32l1 261h-30c-2-10 0-23-3-31-10 23-28 35-59 35-53 0-69-39-70-98 0-66 23-100 70-100zm9 24c-40 0-46 34-46 75 0 40 6 74 45 74 42 0 51-32 51-76 0-42-9-74-50-73" fill="#333"/><path id="u" d="m100-194c62-1 85 37 85 99 1 63-27 99-86 99s-83-39-84-99c0-66 28-99 85-99zm-1 174c44 1 53-31 53-75 0-43-8-75-51-75s-53 32-53 75 10 74 51 75" fill="#333"/><path id="v" d="m59-47c-2 24 18 29 38 22v24c-33 10-70 5-70-39v-127h-22v-23h24l9-43h21v43h35v23h-35z" fill="#333"/></defs><g transform="translate(-60 -60)"><path d="m0 0h1760v1360h-1760z" fill="#fff"/><path d="m80 86c0-3.3 2.7-6 6-6h228c3.3 0 6 2.7 6 6v288c0 3.3-2.7 6-6 6h-228c-3.3 0-6-2.7-6-6z" fill="#1bc3fc"/><path d="m99.42 146c0-3.3 2.7-6 6-6h188c3.32 0 6 2.7 6 6v48c0 3.3-2.68 6-6 6h-188c-3.3 0-6-2.7-6-6z" fill="#ffb302"/><use transform="translate(159.652827 176.291667)" xlink:href="#c"/><path d="m100.58 86c0-3.3 2.68-6 6-6h186.84c3.32 0 6 2.7 6 6v48c0 3.3-2.68 6-6 6h-186.84c-3.32 0-6-2.7-6-6z" fill="none"/><g transform="translate(151.10173 118.116319)"><use transform="scale(.01085069)" xlink:href="#d"/><use transform="matrix(.01085069 0 0 .01085069 11.588542 0)" xlink:href="#e"/><use transform="matrix(.01085069 0 0 .01085069 24.153646 0)" xlink:href="#f"/><use transform="matrix(.01085069 0 0 .01085069 30.045573 0)" xlink:href="#f"/><use transform="matrix(.01085069 0 0 .01085069 35.9375 0)" xlink:href="#g"/><use transform="matrix(.01085069 0 0 .01085069 47.949219 0)" xlink:href="#d"/><use transform="matrix(.01085069 0 0 .01085069 59.53776 0)" xlink:href="#h"/><path d="m416 0h-290v-1082h290zm-145-1212c-92 0-162-61-162-150s68-149 162-149c93 0 162 60 162 149s-70 150-162 150" fill="#fff" transform="matrix(.01085069 0 0 .01085069 67.046441 0)"/><use transform="matrix(.01085069 0 0 .01085069 72.938368 0)" xlink:href="#e"/><use transform="matrix(.01085069 0 0 .01085069 85.503472 0)" xlink:href="#i"/></g><path d="m99.42 226c0-3.3 2.7-6 6-6h188c3.32 0 6 2.7 6 6v48c0 3.3-2.68 6-6 6h-188c-3.3 0-6-2.7-6-6z" fill="#ffb302"/><use transform="translate(159.652827 256.291667)" xlink:href="#c"/><path d="m99.42 306c0-3.3 2.7-6 6-6h188c3.32 0 6 2.7 6 6v48c0 3.3-2.68 6-6 6h-188c-3.3 0-6-2.7-6-6z" fill="#ffb302"/><use transform="translate(159.652827 336.291667)" xlink:href="#c"/><path d="m360 86c0-3.3 2.7-6 6-6h228c3.3 0 6 2.7 6 6v288c0 3.3-2.7 6-6 6h-228c-3.3 0-6-2.7-6-6z" fill="#ffb302"/><path d="m379.42 146c0-3.3 2.7-6 6-6h188c3.32 0 6 2.7 6 6v48c0 3.3-2.68 6-6 6h-188c-3.3 0-6-2.7-6-6z" fill="#12c386"/><use transform="translate(437.918452 176.291667)" xlink:href="#k"/><path d="m380.4 86c0-3.3 2.7-6 6-6h187.2c3.3 0 6 2.7 6 6v48c0 3.3-2.7 6-6 6h-187.2c-3.3 0-6-2.7-6-6z" fill="none"/><g transform="translate(437.957717 118.116319)"><g fill="#333"><path d="m663-1102c295 0 422 250 422 571 0 300-141 549-420 551-109 0-198-38-265-114v510h-289v-1498h268l10 106c70-84 161-126 274-126zm133 550c0-175-53-315-209-315-91 0-153 35-187 104v443c35 71 98 107 189 107 138 0 207-113 207-339" transform="scale(.01085069)"/><path d="m552-1102c254-4 435 134 435 383v469c1 103 15 180 43 233v17h-292c-13-26-23-58-29-97-70 78-161 117-273 117-198 0-372-133-368-324 5-258 212-357 496-357h133c11-137-29-227-160-227-90 0-156 45-156 131h-289c15-231 213-342 460-345zm-195 777c0 76 61 124 142 124 88 0 168-45 198-105v-186h-108c-152 2-232 51-232 167" transform="matrix(.01085069 0 0 .01085069 12.510851 0)"/><path d="m719-811c-143-24-279 1-319 103v708h-289v-1082h273l8 129c74-124 180-175 331-136" transform="matrix(.01085069 0 0 .01085069 24.424913 0)"/></g><use transform="matrix(.01085069 0 0 .01085069 33.072917 0)" xlink:href="#l"/><use transform="matrix(.01085069 0 0 .01085069 40.581597 0)" xlink:href="#m"/><use transform="matrix(.01085069 0 0 .01085069 46.473524 0)" xlink:href="#l"/><use transform="matrix(.01085069 0 0 .01085069 53.982205 0)" xlink:href="#m"/><path d="m579 20c-322 0-521-234-513-571 8-331 182-551 511-551 324 0 514 231 514 572 0 319-198 550-512 550zm-2-888c-169 0-222 141-222 338 0 181 61 317 224 317 170 0 223-137 223-338 0-178-64-317-225-317" fill="#333" transform="matrix(.01085069 0 0 .01085069 59.874132 0)"/><path d="m750-692c-1-124-48-174-173-175-81 0-142 35-183 104v763h-289v-1082h272l9 125c77-97 181-145 311-145 244 0 342 151 342 403v699h-289z" fill="#333" transform="matrix(.01085069 0 0 .01085069 72.439236 0)"/></g><path d="m379.42 226c0-3.3 2.7-6 6-6h188c3.32 0 6 2.7 6 6v48c0 3.3-2.68 6-6 6h-188c-3.3 0-6-2.7-6-6z" fill="#12c386"/><use transform="translate(437.918452 256.291667)" xlink:href="#k"/><path d="m379.42 306c0-3.3 2.7-6 6-6h188c3.32 0 6 2.7 6 6v48c0 3.3-2.68 6-6 6h-188c-3.3 0-6-2.7-6-6z" fill="#12c386"/><use transform="translate(437.918452 336.291667)" xlink:href="#k"/><path d="m640 86c0-3.3 2.7-6 6-6h228c3.3 0 6 2.7 6 6v448c0 3.3-2.7 6-6 6h-228c-3.3 0-6-2.7-6-6z" fill="#12c386"/><path d="m640 86c0-3.3 2.7-6 6-6h228c3.3 0 6 2.7 6 6v48c0 3.3-2.7 6-6 6h-228c-3.3 0-6-2.7-6-6z" fill="none"/><g transform="translate(716.336806 118.116319)"><path d="m529-185c94 0 168-33 168-114 0-35-18-63-53-83s-91-39-168-55c-257-54-386-163-386-328 0-208 203-337 432-337 246 0 451 124 453 349h-289c-2-91-62-143-165-143-86 0-151 41-153 117 0 32 16 57 46 77 63 43 257 69 335 100 151 60 229 153 229 291 0 298-424 404-696 283-120-53-222-162-226-316h274c5 106 86 159 199 159" fill="#fff" transform="scale(.01085069)"/><use transform="matrix(.01085069 0 0 .01085069 11.425781 0)" xlink:href="#g"/><path d="m505 20c-284-2-436-259-436-569 0-302 153-553 438-553 119 0 211 41 277 122l12-102h262v1046c-8 305-208 458-520 462-160 1-335-76-403-170l128-176c72 81 159 121 262 121 172 1 260-107 243-294-67 75-154 113-263 113zm76-887c-165 0-223 147-223 339 0 172 66 314 221 314 88 0 151-33 189-99v-455c-39-66-101-99-187-99" fill="#fff" transform="matrix(.01085069 0 0 .01085069 23.4375 0)"/><path d="m741-689c-2-124-40-177-163-178-82 0-141 34-178 102v765h-289v-1082h271l9 121c77-94 180-141 311-141 139 0 235 55 287 165 76-110 184-165 325-165 249 0 348 151 348 411v691h-290v-690c-2-123-39-176-163-177-87 0-147 41-180 124l1 743h-289z" fill="#fff" transform="matrix(.01085069 0 0 .01085069 36.121962 0)"/><use transform="matrix(.01085069 0 0 .01085069 55.360243 0)" xlink:href="#g"/><use transform="matrix(.01085069 0 0 .01085069 67.371962 0)" xlink:href="#i"/><use transform="matrix(.01085069 0 0 .01085069 79.817708 0)" xlink:href="#h"/></g><path d="m659.42 146c0-3.3 2.7-6 6-6h188c3.32 0 6 2.7 6 6v54c-33.4-10.02-54.2-10.02-66.8-10.02-20 0-46.6 10.02-66.6 10.02-12.4 0-33.4 0-66.6-10.02z" fill="#fff" stroke="#000" stroke-width="2"/><g transform="translate(721.275512 170.277778)"><use transform="scale(.0617284)" xlink:href="#n"/><path d="m141-36c-15 21-31 41-68 40-36-1-58-21-58-57-1-64 63-63 125-63 3-35-9-54-41-54-24 1-41 7-42 31l-33-3c5-37 33-52 76-52 45 0 72 20 72 64v82c-1 20 7 32 28 27v20c-31 9-61-2-59-35zm-93-17c0 20 12 33 32 33 41-3 63-29 60-74-43 2-92-5-92 41" fill="#333" transform="matrix(.0617284 0 0 .0617284 7.345679 0)"/><path d="m206 0h-36l-40-164-41 164h-36l-54-190h32l39 164 43-164h34l41 164 42-164h31" fill="#333" transform="matrix(.0617284 0 0 .0617284 19.691358 0)"/><use transform="matrix(.0617284 0 0 .0617284 35.679012 0)" xlink:href="#o"/><use transform="matrix(.0617284 0 0 .0617284 48.024691 0)" xlink:href="#p"/><use transform="matrix(.0617284 0 0 .0617284 54.197531 0)" xlink:href="#q"/><use transform="matrix(.0617284 0 0 .0617284 59.074074 0)" xlink:href="#r"/><use transform="matrix(.0617284 0 0 .0617284 63.950617 0)" xlink:href="#s"/></g><path d="m659.42 226c0-3.3 2.7-6 6-6h188c3.32 0 6 2.7 6 6v54c-33.4-10.02-54.2-10.02-66.8-10.02-20 0-46.6 10.02-66.6 10.02-12.4 0-33.4 0-66.6-10.02z" fill="#fff" stroke="#000" stroke-width="2"/><g transform="translate(712.602673 250.277778)"><use transform="scale(.0617284)" xlink:href="#q"/><path d="m117-194c89-4 53 116 60 194h-32v-121c0-31-8-49-39-48-72 2-44 102-49 169h-32l-1-190h30c1 10-1 24 2 32 11-22 29-35 61-36" fill="#333" transform="matrix(.0617284 0 0 .0617284 4.876543 0)"/><use transform="matrix(.0617284 0 0 .0617284 17.222222 0)" xlink:href="#t"/><use transform="matrix(.0617284 0 0 .0617284 29.567901 0)" xlink:href="#s"/><path d="m141 0-51-78-52 78h-34l68-98-65-92h35l48 74 47-74h35l-64 92 68 98z" fill="#333" transform="matrix(.0617284 0 0 .0617284 41.91358 0)"/><use transform="matrix(.0617284 0 0 .0617284 53.024691 0)" xlink:href="#o"/><use transform="matrix(.0617284 0 0 .0617284 65.37037 0)" xlink:href="#p"/><use transform="matrix(.0617284 0 0 .0617284 71.54321 0)" xlink:href="#q"/><use transform="matrix(.0617284 0 0 .0617284 76.419753 0)" xlink:href="#r"/><use transform="matrix(.0617284 0 0 .0617284 81.296296 0)" xlink:href="#s"/></g><path d="m659.42 306c0-3.3 2.7-6 6-6h188c3.32 0 6 2.7 6 6v54c-33.4-10.02-54.2-10.02-66.8-10.02-20 0-46.6 10.02-66.6 10.02-12.4 0-33.4 0-66.6-10.02z" fill="#fff" stroke="#000" stroke-width="2"/><g transform="translate(702.170574 330.277778)"><path d="m115-194c53 0 69 39 70 98 0 66-23 100-70 100-31-1-49-11-59-34l-2 30h-31l1-261h32v101c10-23 28-34 59-34zm-8 174c40 0 45-34 45-75 0-40-5-75-45-74-42 0-51 32-51 76 0 43 10 73 51 73" fill="#333" transform="scale(.0617284)"/><use transform="matrix(.0617284 0 0 .0617284 12.345679 0)" xlink:href="#r"/><use transform="matrix(.0617284 0 0 .0617284 17.222222 0)" xlink:href="#u"/><use transform="matrix(.0617284 0 0 .0617284 29.567901 0)" xlink:href="#u"/><path d="m210-169c-67 3-38 105-44 169h-31v-121c0-29-5-50-35-48-66 4-38 104-44 169h-31l-1-190h30c1 10-1 24 2 32 10-44 99-50 107 0 11-21 27-35 58-36 85-2 47 119 55 194h-31v-121c0-29-5-49-35-48" fill="#333" transform="matrix(.0617284 0 0 .0617284 41.91358 0)"/><use transform="matrix(.0617284 0 0 .0617284 60.37037 0)" xlink:href="#o"/><use transform="matrix(.0617284 0 0 .0617284 72.716049 0)" xlink:href="#p"/><use transform="matrix(.0617284 0 0 .0617284 78.888889 0)" xlink:href="#q"/><use transform="matrix(.0617284 0 0 .0617284 83.765432 0)" xlink:href="#r"/><use transform="matrix(.0617284 0 0 .0617284 88.641975 0)" xlink:href="#v"/><use transform="matrix(.0617284 0 0 .0617284 94.814815 0)" xlink:href="#s"/><use transform="matrix(.0617284 0 0 .0617284 107.160494 0)" xlink:href="#n"/></g><path d="m660 386c0-3.3 2.7-6 6-6h188c3.3 0 6 2.7 6 6v54c-33.4-10.02-54.2-10.02-66.8-10.02-20 0-46.6 10.02-66.6 10.02-12.4 0-33.4 0-66.6-10.02z" fill="#fff" stroke="#000" stroke-width="2"/><g transform="translate(745.216049 410.277778)"><path d="m84 4c-89 4-54-116-61-194h32v120c0 31 7 50 39 49 72-2 45-101 50-169h31l1 190h-30c-1-10 1-25-2-33-11 22-28 36-60 37" fill="#333" transform="scale(.0617284)"/><use transform="matrix(.0617284 0 0 .0617284 12.345679 0)" xlink:href="#q"/><use transform="matrix(.0617284 0 0 .0617284 17.222222 0)" xlink:href="#t"/></g><path d="m660 466c0-3.3 2.7-6 6-6h188c3.3 0 6 2.7 6 6v54c-33.4-10.02-54.2-10.02-66.8-10.02-20 0-46.6 10.02-66.6 10.02-12.4 0-33.4 0-66.6-10.02z" fill="#fff" stroke="#000" stroke-width="2"/><g transform="translate(700.154321 490.277778)"><use transform="scale(.0617284)" xlink:href="#t"/><use transform="matrix(.0617284 0 0 .0617284 12.345679 0)" xlink:href="#s"/><use transform="matrix(.0617284 0 0 .0617284 24.691358 0)" xlink:href="#r"/><use transform="matrix(.0617284 0 0 .0617284 29.567901 0)" xlink:href="#s"/><use transform="matrix(.0617284 0 0 .0617284 41.91358 0)" xlink:href="#v"/><use transform="matrix(.0617284 0 0 .0617284 48.08642 0)" xlink:href="#s"/><use transform="matrix(.0617284 0 0 .0617284 60.432099 0)" xlink:href="#o"/><use transform="matrix(.0617284 0 0 .0617284 72.777778 0)" xlink:href="#t"/><use transform="matrix(.0617284 0 0 .0617284 85.123457 0)" xlink:href="#u"/><g fill="#333"><path d="m96-169c-40 0-48 33-48 73s9 75 48 75c24 0 41-14 43-38l32 2c-6 37-31 61-74 61-59 0-76-41-82-99-10-93 101-131 147-64 4 7 5 14 7 22l-32 3c-4-21-16-35-41-35" transform="matrix(.0617284 0 0 .0617284 97.469136 0)"/><path d="m135-143c-3-34-86-38-87 0 15 53 115 12 119 90s-150 74-157 8l28-5c4 36 97 45 98 0-10-56-113-15-118-90-4-57 82-63 122-42 12 7 21 19 24 35" transform="matrix(.0617284 0 0 .0617284 108.580247 0)"/></g></g><path d="m300.42 170h23.3c3.3 0 6 2.7 6 6v48.58c0 3.3 2.68 6 6 6h5.78" fill="none" stroke="#000" stroke-width="2"/><path d="m300.45 171h-1.03v-2h1.03z"/><path d="m356.76 230.58-14.26 4.63v-9.26z" stroke="#000" stroke-width="2"/><path d="m580.42 170h23.3c3.3 0 6 2.7 6 6v128c0 3.3 2.68 6 6 6h5.78" fill="none" stroke="#000" stroke-width="2"/><path d="m580.45 171h-1.03v-2h1.03z"/><path d="m636.76 310-14.26 4.64v-9.28z" stroke="#000" stroke-width="2"/></g></svg>