<svg width="60" height="60" viewBox="0 0 60 60" fill="none" xmlns="http://www.w3.org/2000/svg">
<rect width="60" height="60" fill="white"/>
<rect x="14" y="14" width="32" height="32" stroke="#4FC4F9" stroke-width="2"/>
<rect x="21" y="21" width="18" height="18" stroke="#4FC4F9" stroke-width="2"/>
<rect x="28" y="10" width="4" height="3" fill="#4FC4F9"/>
<rect width="4" height="3" transform="matrix(1 0 0 -1 28 50)" fill="#4FC4F9"/>
<rect x="50" y="28" width="4" height="3" transform="rotate(90 50 28)" fill="#4FC4F9"/>
<rect width="4" height="3" transform="matrix(4.37114e-08 1 1 -4.37114e-08 10 28)" fill="#4FC4F9"/>
<path fill-rule="evenodd" clip-rule="evenodd" d="M17 7.94999C18.1411 7.71836 19 6.70948 19 5.5C19 4.11929 17.8807 3 16.5 3C15.1193 3 14 4.11929 14 5.5C14 6.70948 14.8589 7.71836 16 7.94999V13H17V7.94999Z" fill="#00FFA2"/>
<path fill-rule="evenodd" clip-rule="evenodd" d="M16 52.05C14.8589 52.2816 14 53.2905 14 54.5C14 55.8807 15.1193 57 16.5 57C17.8807 57 19 55.8807 19 54.5C19 53.2905 18.1411 52.2816 17 52.05V47H16V52.05Z" fill="#00FFA2"/>
<path fill-rule="evenodd" clip-rule="evenodd" d="M53.05 16C53.2816 17.1411 54.2905 18 55.5 18C56.8807 18 58 16.8807 58 15.5C58 14.1193 56.8807 13 55.5 13C54.2905 13 53.2816 13.8589 53.05 15L47 15V16L53.05 16Z" fill="#00FFA2"/>
<path fill-rule="evenodd" clip-rule="evenodd" d="M8.94999 16C8.71836 17.1411 7.70948 18 6.5 18C5.11929 18 4 16.8807 4 15.5C4 14.1193 5.11929 13 6.5 13C7.70948 13 8.71836 13.8589 8.94999 15L13 15V16L8.94999 16Z" fill="#00FFA2"/>
<path fill-rule="evenodd" clip-rule="evenodd" d="M45 7.94999C46.1411 7.71836 47 6.70948 47 5.5C47 4.11929 45.8807 3 44.5 3C43.1193 3 42 4.11929 42 5.5C42 6.70948 42.8589 7.71836 44 7.94999V13H45V7.94999Z" fill="#00FFA2"/>
<path fill-rule="evenodd" clip-rule="evenodd" d="M44 52.05C42.8589 52.2816 42 53.2905 42 54.5C42 55.8807 43.1193 57 44.5 57C45.8807 57 47 55.8807 47 54.5C47 53.2905 46.1411 52.2816 45 52.05V47H44V52.05Z" fill="#00FFA2"/>
<path fill-rule="evenodd" clip-rule="evenodd" d="M53.05 44C53.2816 45.1411 54.2905 46 55.5 46C56.8807 46 58 44.8807 58 43.5C58 42.1193 56.8807 41 55.5 41C54.2905 41 53.2816 41.8589 53.05 43L47 43V44L53.05 44Z" fill="#00FFA2"/>
<path fill-rule="evenodd" clip-rule="evenodd" d="M8.94999 44C8.71836 45.1411 7.70948 46 6.5 46C5.11929 46 4 44.8807 4 43.5C4 42.1193 5.11929 41 6.5 41C7.70948 41 8.71836 41.8589 8.94999 43L13 43V44L8.94999 44Z" fill="#00FFA2"/>
</svg>
