<svg width="60" height="60" viewBox="0 0 60 60" fill="none" xmlns="http://www.w3.org/2000/svg">
<rect x="1.5" y="13.5" width="57" height="29" stroke="black" stroke-dasharray="2 2"/>
<path d="M1.5 11C1.5 10.1716 2.17157 9.5 3 9.5H57C57.8284 9.5 58.5 10.1716 58.5 11V45C58.5 45.8284 57.8284 46.5 57 46.5H3C2.17157 46.5 1.5 45.8284 1.5 45V11Z" stroke="black"/>
<path d="M15 52H45" stroke="black"/>
<path d="M31.5455 20V28H25L31.5455 20Z" fill="#4FC4F9"/>
<path d="M28.6342 36V28H35.1797L28.6342 36Z" fill="#4FC4F9"/>
<path fill-rule="evenodd" clip-rule="evenodd" d="M41.4225 31.6882C41.7975 30.5262 42 29.2867 42 27.9999C42 26.6328 41.7714 25.3191 41.3503 24.0949L42.3091 23.8073C42.757 25.1227 43 26.5329 43 27.9999C43 29.4077 42.7762 30.7632 42.3623 32.0328L41.4225 31.6882ZM18.5775 31.6882C18.2025 30.5262 18 29.2867 18 27.9999C18 26.6328 18.2286 25.3191 18.6497 24.0949L17.6909 23.8073C17.243 25.1227 17 26.5329 17 27.9999C17 29.4077 17.2238 30.7632 17.6377 32.0328L18.5775 31.6882ZM21.3978 30.6541C21.1392 29.8152 21 28.9238 21 28C21 26.9324 21.1859 25.9082 21.527 24.9581L22.4867 25.246C22.1718 26.1046 22 27.0322 22 28C22 28.8029 22.1183 29.5781 22.3383 30.3093L21.3978 30.6541ZM38.6022 30.6541C38.8608 29.8152 39 28.9238 39 28C39 26.9324 38.8141 25.9082 38.473 24.9581L37.5133 25.246C37.8282 26.1046 38 27.0322 38 28C38 28.8029 37.8817 29.5781 37.6617 30.3093L38.6022 30.6541Z" fill="black"/>
</svg>
