<svg width="100" height="41" viewBox="0 0 100 41" fill="none" xmlns="http://www.w3.org/2000/svg">
<rect x="47.2062" y="12.6713" width="11.6231" height="2.53426" fill="white"/>
<rect x="87.4793" y="12.6713" width="11.6231" height="2.53426" fill="white"/>
<rect x="68.7192" y="6.79181" width="2.75284" height="21.085" fill="white"/>
<rect x="62.6017" y="12.6713" width="2.75284" height="15.2055" fill="white"/>
<rect width="2.75284" height="2.737" transform="matrix(1 0 0 -1 62.6017 9.52881)" fill="white"/>
<rect x="46.9003" y="25.3426" width="12.2349" height="2.53426" fill="white"/>
<path d="M46.9003 25.3426L55.5677 15.2055L58.8293 15.2055L50.1619 25.3426L46.9003 25.3426Z" fill="white"/>
<path d="M87.1734 25.3426L95.8408 15.2055L99.1024 15.2055L90.435 25.3426L87.1734 25.3426Z" fill="white"/>
<rect x="74.8366" y="6.79181" width="2.75284" height="21.085" fill="white"/>
<rect x="87.1734" y="25.3426" width="12.2349" height="2.53426" fill="white"/>
<rect x="80.954" y="12.6713" width="2.75284" height="15.2055" fill="white"/>
<rect width="2.75284" height="2.737" transform="matrix(1 0 0 -1 80.954 9.52881)" fill="white"/>
<path d="M19.117 27.5668V40.5481H21.6659V25.003L28.4438 36.6751C29.2108 36.3021 29.9477 35.8776 30.6501 35.406L23.2305 22.6289L31.4014 25.5857C31.7701 24.8317 32.0627 24.0342 32.2694 23.2029L27.6773 21.5412H40.7829V19.0069H25.1477L36.8874 12.268C36.5123 11.5054 36.0853 10.7727 35.611 10.0744L22.836 17.4076L25.7849 9.35235C25.0281 8.98224 24.2273 8.68758 23.3924 8.47826L21.6659 13.1943V0H19.117V15.5451L12.3391 3.87296C11.5721 4.2459 10.8351 4.67045 10.1328 5.14207L17.5215 17.8661L9.39905 14.9267C9.02785 15.6796 8.7326 16.4762 8.52321 17.3067L13.2216 19.0069H0V21.5412H15.635L3.89541 28.28C4.2705 29.0426 4.69751 29.7753 5.17186 30.4736L18.0456 23.0837L15.0642 31.228C15.823 31.5935 16.6256 31.8833 17.462 32.0876L19.117 27.5668Z" fill="white"/>
</svg>
