<svg xmlns="http://www.w3.org/2000/svg" width="64" height="80" viewBox="0 0 64 80" fill="none">
<path d="M30.0426 80C13.4513 80 0.00131226 76.5368 0.00131226 72.2647C0.00131226 67.9925 13.4513 64.5293 30.0426 64.5293C46.634 64.5293 60.084 67.9925 60.084 72.2647C60.084 76.5368 46.634 80 30.0426 80Z" fill="#BDCFDF"/>
<path d="M23.7476 51.439C23.5111 52.1417 23.3129 52.8568 23.1539 53.5811C22.9877 54.2951 22.8523 55.0091 22.7336 55.7232C22.5009 57.1512 22.333 58.5737 22.2301 59.9907C22.0271 62.8332 22.0367 65.687 22.2586 68.5281L23.0423 67.2119C22.47 67.5785 21.9095 67.9688 21.3515 68.3568L20.5226 68.9613L19.7057 69.5849C19.1666 70.0157 18.6323 70.4489 18.1122 70.913C17.5822 71.3777 17.0765 71.8694 16.5971 72.3863C17.2918 72.27 17.9799 72.1166 18.6584 71.9269C19.3305 71.7508 19.9859 71.5414 20.6414 71.3272L21.6103 70.9868L22.5602 70.625C23.1919 70.3727 23.826 70.1204 24.4435 69.842L25.1559 69.5254L25.2343 68.5281C25.4562 65.687 25.4658 62.8332 25.2628 59.9907C25.1583 58.5626 24.9944 57.1346 24.7593 55.7232C24.6406 55.0091 24.5052 54.2951 24.3413 53.5811C24.1813 52.857 23.9831 52.142 23.7476 51.439Z" fill="black"/>
<path d="M34.6725 53.8188C34.4354 54.5216 34.2364 55.2367 34.0764 55.9609C33.9102 56.675 33.7748 57.389 33.6561 58.103C33.4233 59.5311 33.2563 60.9647 33.155 62.4039C33.0537 63.843 33.0062 65.2759 33.0125 66.7023C33.0125 68.1304 33.0695 69.5704 33.1859 71.0032L33.9672 69.6917C33.3948 70.0583 32.8368 70.4486 32.2787 70.8366L31.4499 71.4411L30.6306 72.0647C30.0939 72.4931 29.5571 72.9263 29.0394 73.3928C28.5087 73.8558 28.0022 74.346 27.5219 74.8613C28.2157 74.7441 28.903 74.5908 29.5809 74.402C30.2553 74.2235 30.9108 74.014 31.5639 73.7998L32.5328 73.4594L33.4827 73.1C34.1144 72.8454 34.7485 72.5931 35.3683 72.3146L36.0807 72.0028L36.1615 71.0032C36.2779 69.5751 36.3301 68.1471 36.3372 66.7023C36.3443 65.2576 36.2945 63.8462 36.1924 62.4039C36.0902 60.9615 35.924 59.5478 35.6913 58.103C35.5725 57.389 35.4372 56.675 35.2709 55.9609C35.1102 55.2366 34.9104 54.5215 34.6725 53.8188Z" fill="black"/>
<path d="M18.7637 3.2602L6.20091 15.851L3.26327 2.29864C3.19687 1.98445 3.21084 1.65853 3.30389 1.3512C3.39694 1.04388 3.56604 0.765131 3.79545 0.540902C4.02487 0.316674 4.30716 0.154246 4.61604 0.068734C4.92492 -0.0167782 5.25036 -0.0225976 5.56209 0.0518173L18.7637 3.2602Z" fill="black"/>
<path d="M33.533 60.0066L46.9364 60.0066C47.5266 60.0066 48.0926 59.7716 48.5099 59.3534C48.9272 58.9352 49.1616 58.3679 49.1616 57.7764L49.1616 25.3546C49.1616 19.1442 46.7007 13.188 42.3199 8.79563C37.9391 4.40331 31.9972 1.93446 25.8006 1.93193H25.7507C20.3732 1.93193 15.2159 4.07293 11.4134 7.88392C7.61084 11.6949 5.47461 16.8637 5.47461 22.2533L5.47461 31.8785C5.47461 39.3398 8.432 46.4955 13.6962 51.7714C18.9604 57.0474 26.1002 60.0114 33.5449 60.0114L33.533 60.0066Z" fill="white"/>
<path fill-rule="evenodd" clip-rule="evenodd" d="M33.0376 58.879C26.0761 58.748 19.427 55.9195 14.4936 50.975C9.44068 45.9108 6.60151 39.0417 6.60151 31.8787L6.60151 22.2536C6.60151 17.1623 8.61951 12.2801 12.2108 8.68085C15.802 5.08165 20.6721 3.0601 25.7497 3.0601H25.7991C25.7993 3.0601 25.799 3.0601 25.7991 3.0601C31.6957 3.06263 37.3509 5.41197 41.5203 9.5924C45.6899 13.773 48.0327 19.4427 48.0327 25.3549L48.0327 57.7767C48.0327 58.0699 47.9165 58.3505 47.7104 58.557C47.5045 58.7634 47.2256 58.879 46.9354 58.879L33.0376 58.879ZM39.3758 61.1348H46.9354C47.8255 61.1348 48.6787 60.7804 49.3073 60.1503C49.9359 59.5204 50.2885 58.6665 50.2885 57.7767L50.2885 25.3549C50.2885 18.8462 47.7094 12.6034 43.1175 7.9994C38.5255 3.39529 32.2965 0.806946 25.8001 0.804298H25.7497C20.0722 0.804298 14.6278 3.06474 10.6139 7.08754C6.60016 11.1102 4.3457 16.5657 4.3457 22.2536L4.3457 31.8787C4.3457 39.6384 7.42132 47.0807 12.8968 52.5683C18.3723 58.0561 25.7992 61.1395 33.5439 61.1395H39.3877L39.3758 61.1348Z" fill="black"/>
<path d="M29.9223 29.3035C27.2991 29.3035 25.1726 27.1723 25.1726 24.5433C25.1726 21.9143 27.2991 19.7831 29.9223 19.7831C32.5454 19.7831 34.6719 21.9143 34.6719 24.5433C34.6719 27.1723 32.5454 29.3035 29.9223 29.3035Z" fill="#FFAEAE"/>
<path d="M22.0851 25.733C17.1011 25.733 13.0608 21.6837 13.0608 16.6886C13.0608 11.6935 17.1011 7.64417 22.0851 7.64417C27.0691 7.64417 31.1094 11.6935 31.1094 16.6886C31.1094 21.6837 27.0691 25.733 22.0851 25.733Z" fill="white"/>
<path fill-rule="evenodd" clip-rule="evenodd" d="M22.0861 8.7718C26.4448 8.7718 29.9825 12.3138 29.9825 16.6883C29.9825 21.0628 26.4448 24.6048 22.0861 24.6048C17.7274 24.6048 14.1897 21.0628 14.1897 16.6883C14.1897 12.3138 17.7274 8.7718 22.0861 8.7718ZM32.2383 16.6883C32.2383 11.0727 27.6954 6.51599 22.0861 6.51599C16.4768 6.51599 11.9339 11.0727 11.9339 16.6883C11.9339 22.3039 16.4768 26.8606 22.0861 26.8606C27.6954 26.8606 32.2383 22.3039 32.2383 16.6883Z" fill="black"/>
<path d="M48.6318 60.1634L62.3416 52.2638L57.1146 59.9468L63.2559 66.5754L48.6318 60.1634Z" fill="black"/>
<g clip-path="url(#clip0_523_1367)">
<circle cx="18.1637" cy="13.6204" r="2.29651" fill="#191919"/>
</g>
<defs>
<clipPath id="clip0_523_1367">
<rect width="10.8357" height="10.8357" fill="white" transform="translate(15.8145 11.2455)"/>
</clipPath>
</defs>
</svg>