<svg width="58" height="47" viewBox="0 0 58 47" fill="none" xmlns="http://www.w3.org/2000/svg">
<path d="M32.9524 17.7142C32.9524 19.9497 31.1402 21.7619 28.9048 21.7619C26.6694 21.7619 24.8572 19.9497 24.8572 17.7142C24.8572 15.4788 26.6694 13.6666 28.9048 13.6666C31.1402 13.6666 32.9524 15.4788 32.9524 17.7142Z" fill="#4FC4F9"/>
<circle cx="28.9046" cy="17.7142" r="2.42857" fill="white"/>
<rect x="1" y="1" width="56" height="40" stroke="#4FC4F9" stroke-width="2"/>
<path d="M22.1726 25.6247L29.3096 33.5L35.9967 24.9406C38.2206 22.0939 39.6273 18.4945 38.4265 15.0875C37.2341 11.7043 34.6229 8 28.9049 8C23.7991 8 20.98 10.9534 19.4304 13.9946C17.442 17.897 19.2315 22.3793 22.1726 25.6247Z" stroke="#1493CC" stroke-width="2"/>
<path d="M10 46H48" stroke="#4FC4F9" stroke-width="2"/>
</svg>
